<mxfile host="65bd71144e">
    <diagram id="NUAnMJXFelZifnO7NRO8" name="Page-1">
        <mxGraphModel dx="1791" dy="930" grid="1" gridSize="10" guides="1" tooltips="1" connect="1" arrows="1" fold="1" page="1" pageScale="1" pageWidth="850" pageHeight="1100" math="0" shadow="0">
            <root>
                <mxCell id="0"/>
                <mxCell id="1" parent="0"/>
                <mxCell id="3" value="Network Interface Controller" style="rounded=1;whiteSpace=wrap;html=1;fillColor=#e51400;fontColor=#ffffff;strokeColor=#000000;" vertex="1" parent="1">
                    <mxGeometry x="20" y="30" width="130" height="160" as="geometry"/>
                </mxCell>
                <mxCell id="4" value="Network Interface Controller" style="rounded=1;whiteSpace=wrap;html=1;fillColor=#e51400;fontColor=#ffffff;strokeColor=#000000;" vertex="1" parent="1">
                    <mxGeometry x="570" y="30" width="130" height="160" as="geometry"/>
                </mxCell>
                <mxCell id="11" style="edgeStyle=none;html=1;endArrow=open;endFill=0;entryX=0;entryY=0.25;entryDx=0;entryDy=0;strokeWidth=2;endSize=20;" edge="1" parent="1">
                    <mxGeometry relative="1" as="geometry">
                        <mxPoint x="20" y="70" as="targetPoint"/>
                        <mxPoint x="-40" y="70" as="sourcePoint"/>
                    </mxGeometry>
                </mxCell>
                <mxCell id="13" style="edgeStyle=none;html=1;endArrow=open;endFill=0;strokeWidth=2;endSize=20;" edge="1" parent="1">
                    <mxGeometry relative="1" as="geometry">
                        <mxPoint x="-40" y="150" as="targetPoint"/>
                        <mxPoint x="20" y="150.16000000000008" as="sourcePoint"/>
                    </mxGeometry>
                </mxCell>
                <mxCell id="14" value="Data (packets)" style="text;html=1;strokeColor=none;fillColor=none;align=center;verticalAlign=middle;whiteSpace=wrap;rounded=0;" vertex="1" parent="1">
                    <mxGeometry x="-50" y="95" width="70" height="30" as="geometry"/>
                </mxCell>
                <mxCell id="15" style="edgeStyle=none;html=1;endArrow=open;endFill=0;entryX=0;entryY=0.25;entryDx=0;entryDy=0;strokeWidth=2;endSize=20;" edge="1" parent="1">
                    <mxGeometry relative="1" as="geometry">
                        <mxPoint x="760" y="150" as="targetPoint"/>
                        <mxPoint x="700" y="150" as="sourcePoint"/>
                    </mxGeometry>
                </mxCell>
                <mxCell id="16" style="edgeStyle=none;html=1;endArrow=open;endFill=0;strokeWidth=2;endSize=20;" edge="1" parent="1">
                    <mxGeometry relative="1" as="geometry">
                        <mxPoint x="700" y="70" as="targetPoint"/>
                        <mxPoint x="760" y="70.15999999999997" as="sourcePoint"/>
                    </mxGeometry>
                </mxCell>
                <mxCell id="17" value="Data (Packets)" style="text;html=1;strokeColor=none;fillColor=none;align=center;verticalAlign=middle;whiteSpace=wrap;rounded=0;" vertex="1" parent="1">
                    <mxGeometry x="700" y="95" width="70" height="30" as="geometry"/>
                </mxCell>
                <mxCell id="37" value="Wifi" style="text;html=1;strokeColor=none;fillColor=none;align=center;verticalAlign=middle;whiteSpace=wrap;rounded=0;" vertex="1" parent="1">
                    <mxGeometry x="300" y="65" width="120" height="30" as="geometry"/>
                </mxCell>
                <mxCell id="38" value="Bluetooth" style="text;html=1;strokeColor=none;fillColor=none;align=center;verticalAlign=middle;whiteSpace=wrap;rounded=0;" vertex="1" parent="1">
                    <mxGeometry x="300" y="95" width="120" height="30" as="geometry"/>
                </mxCell>
                <mxCell id="39" value="Ethernet" style="text;html=1;strokeColor=none;fillColor=none;align=center;verticalAlign=middle;whiteSpace=wrap;rounded=0;" vertex="1" parent="1">
                    <mxGeometry x="300" y="125" width="120" height="30" as="geometry"/>
                </mxCell>
                <mxCell id="40" value="4G/5G" style="text;html=1;strokeColor=none;fillColor=none;align=center;verticalAlign=middle;whiteSpace=wrap;rounded=0;" vertex="1" parent="1">
                    <mxGeometry x="300" y="35" width="120" height="30" as="geometry"/>
                </mxCell>
                <mxCell id="41" value="Fibre Optic Cable" style="text;html=1;strokeColor=none;fillColor=none;align=center;verticalAlign=middle;whiteSpace=wrap;rounded=0;" vertex="1" parent="1">
                    <mxGeometry x="300" y="155" width="120" height="30" as="geometry"/>
                </mxCell>
                <mxCell id="43" style="edgeStyle=none;html=1;endArrow=open;endFill=0;entryX=0;entryY=0.25;entryDx=0;entryDy=0;strokeWidth=2;endSize=20;" edge="1" parent="1">
                    <mxGeometry relative="1" as="geometry">
                        <mxPoint x="570" y="69.71" as="targetPoint"/>
                        <mxPoint x="510" y="69.71" as="sourcePoint"/>
                    </mxGeometry>
                </mxCell>
                <mxCell id="44" style="edgeStyle=none;html=1;endArrow=open;endFill=0;strokeWidth=2;endSize=20;" edge="1" parent="1">
                    <mxGeometry relative="1" as="geometry">
                        <mxPoint x="510" y="149.71" as="targetPoint"/>
                        <mxPoint x="570" y="149.8700000000001" as="sourcePoint"/>
                    </mxGeometry>
                </mxCell>
                <mxCell id="45" style="edgeStyle=none;html=1;endArrow=open;endFill=0;entryX=0;entryY=0.25;entryDx=0;entryDy=0;strokeWidth=2;endSize=20;" edge="1" parent="1">
                    <mxGeometry relative="1" as="geometry">
                        <mxPoint x="210" y="149.71" as="targetPoint"/>
                        <mxPoint x="150" y="149.71" as="sourcePoint"/>
                    </mxGeometry>
                </mxCell>
                <mxCell id="46" style="edgeStyle=none;html=1;endArrow=open;endFill=0;strokeWidth=2;endSize=20;" edge="1" parent="1">
                    <mxGeometry relative="1" as="geometry">
                        <mxPoint x="150" y="69.71000000000001" as="targetPoint"/>
                        <mxPoint x="210" y="69.86999999999998" as="sourcePoint"/>
                    </mxGeometry>
                </mxCell>
            </root>
        </mxGraphModel>
    </diagram>
</mxfile>